# xmcd
#
# Track frame offsets: 
#        150
#        18347
#        42830
#        59973
#        82718
#        106591
#        128268
#        149016
#        176641
#        192906
#        218753
#        239989
#
# Disc length: 3513 seconds
#
# Revision: 1
# Processed by: cddbd v1.5.2PL0 Copyright (c) Steve Scherf et al.
# Submitted via: ExactAudioCopy v1.0b1
#
DISCID=a60db70c
DTITLE=Woongsan - The Blues
DYEAR=2005
DGENRE=Blues
TTITLE0=Call Me
TTITLE1=돈다. 그래도 제자리
TTITLE2=W-O-M-E-N
TTITLE3=I'd Rather Go Blind
TTITLE4=취하다
TTITLE5=3(삶)
TTITLE6=Fine And Mellow
TTITLE7=청량리 블루스
TTITLE8=Just Like (I Treat You Baby)
TTITLE9=잊어야 한다면
TTITLE10=몽상
TTITLE11=비새(雨鳥)
EXTD=
EXTT0=
EXTT1=
EXTT2=
EXTT3=
EXTT4=
EXTT5=
EXTT6=
EXTT7=
EXTT8=
EXTT9=
EXTT10=
EXTT11=
PLAYORDER=
